<svg xmlns="http://www.w3.org/2000/svg" xmlns:xlink="http://www.w3.org/1999/xlink" width="500" zoomAndPan="magnify" viewBox="0 0 375 374.999991" height="500" preserveAspectRatio="xMidYMid meet" version="1.2"><g id="b79d37c163"><path style=" stroke:none;fill-rule:nonzero;fill:#ffffff;fill-opacity:1;" d="M 159.75 45.75 C 161.53125 47.308594 161.976562 47.925781 162.75 50.25 C 162.800781 51.488281 162.8125 52.734375 162.796875 53.972656 C 162.792969 54.699219 162.785156 55.421875 162.777344 56.167969 C 162.761719 57.6875 162.742188 59.210938 162.71875 60.730469 C 162.714844 61.457031 162.710938 62.179688 162.703125 62.925781 C 162.691406 63.917969 162.691406 63.917969 162.675781 64.929688 C 162.746094 66.652344 163.015625 68.105469 163.5 69.75 C 164.128906 69.90625 164.761719 70.0625 165.410156 70.222656 C 184.703125 75.035156 203.867188 80.273438 223.015625 85.625 C 238.820312 91.082031 238.820312 91.082031 255 93.75 C 255.191406 93.070312 255.191406 93.070312 255.386719 92.371094 C 259.390625 78.535156 259.390625 78.535156 264.75 75 C 277.496094 70.75 295.789062 79.226562 307.222656 84.507812 C 315.074219 88.640625 319.699219 93.351562 322.640625 101.8125 C 329.839844 127.25 326.410156 157.492188 325.949219 183.632812 C 325.917969 185.488281 325.882812 187.347656 325.851562 189.203125 C 325.785156 193.054688 325.71875 196.90625 325.648438 200.757812 C 325.5625 205.660156 325.480469 210.558594 325.398438 215.457031 C 325.332031 219.277344 325.265625 223.097656 325.199219 226.917969 C 325.167969 228.722656 325.136719 230.527344 325.105469 232.335938 C 324.972656 240.449219 324.832031 248.5625 324.429688 256.671875 C 324.40625 257.203125 324.382812 257.734375 324.359375 258.28125 C 323.84375 267.445312 319.753906 273.816406 313.21875 279.9375 C 309.078125 283.550781 304.683594 286.800781 300.265625 290.066406 C 296.839844 292.605469 293.472656 295.21875 290.109375 297.84375 C 289.535156 298.292969 288.960938 298.738281 288.371094 299.199219 C 287.253906 300.070312 286.140625 300.941406 285.023438 301.8125 C 281.753906 304.359375 278.464844 306.886719 275.171875 309.40625 C 273.496094 310.695312 271.824219 311.992188 270.148438 313.285156 C 263.640625 318.304688 257.089844 323.238281 250.3125 327.890625 C 249.75 328.277344 249.1875 328.664062 248.609375 329.0625 C 233.929688 339.011719 222.027344 338.117188 205.101562 335 C 197.058594 333.453125 189.089844 331.613281 181.128906 329.699219 C 179.105469 329.214844 177.082031 328.734375 175.054688 328.25 C 154.597656 323.359375 134.375 317.90625 114.238281 311.816406 C 102.972656 308.414062 91.675781 305.253906 80.246094 302.453125 C 70.324219 299.984375 58.679688 296.996094 52.59375 288.140625 C 47.460938 278.992188 48.636719 266.734375 48.652344 256.609375 C 48.648438 255.554688 48.648438 254.5 48.648438 253.445312 C 48.644531 250.640625 48.648438 247.832031 48.652344 245.023438 C 48.65625 243.265625 48.65625 241.507812 48.660156 239.75 C 48.78125 124.726562 48.78125 124.726562 59.527344 113.695312 C 64.875 108.4375 70.667969 103.703125 76.5 99 C 78.257812 97.574219 80.007812 96.132812 81.75 94.6875 C 82.164062 94.351562 82.578125 94.015625 83.003906 93.667969 C 86.546875 90.714844 88.453125 88.382812 88.941406 83.773438 C 89.035156 82.523438 89.121094 81.269531 89.203125 80.015625 C 89.777344 73.085938 90.988281 66.652344 93 60 C 93.214844 59.285156 93.429688 58.566406 93.648438 57.828125 C 95.824219 51.570312 99.59375 46.925781 105.4375 43.785156 C 109.464844 41.855469 113.40625 40.996094 117.796875 40.3125 C 118.839844 40.132812 118.839844 40.132812 119.90625 39.949219 C 134.265625 37.53125 147.339844 36.765625 159.75 45.75 Z M 72 178.5 C 72.058594 182.640625 73.988281 184.796875 76.78125 187.59375 C 81.398438 192.367188 81.398438 192.367188 83.25 195 C 81.851562 198.390625 79.410156 200.136719 76.644531 202.425781 C 74.90625 204.089844 73.8125 205.597656 72.75 207.75 C 72.910156 209.808594 72.910156 209.808594 73.5 211.5 C 75.230469 212.082031 75.230469 212.082031 77.25 212.25 C 78.816406 211.394531 78.816406 211.394531 80.15625 210 C 80.664062 209.519531 81.171875 209.039062 81.695312 208.542969 C 82.464844 207.78125 82.464844 207.78125 83.25 207 C 83.761719 206.5 84.273438 205.996094 84.800781 205.480469 C 86.046875 204.246094 87.277344 203.003906 88.5 201.75 C 91.179688 203.839844 93.464844 205.957031 95.671875 208.546875 C 99.125 212.804688 99.125 212.804688 104.015625 214.78125 C 105.890625 214.652344 105.890625 214.652344 107.25 213 C 107.304688 210.636719 106.992188 209.09375 105.460938 207.25 C 104.566406 206.371094 103.65625 205.503906 102.738281 204.648438 C 101.183594 203.1875 99.757812 201.660156 98.34375 200.0625 C 97.914062 199.578125 97.480469 199.09375 97.035156 198.597656 C 96 197.25 96 197.25 95.25 195 C 95.621094 194.683594 95.996094 194.363281 96.378906 194.035156 C 98.015625 192.621094 99.632812 191.1875 101.25 189.75 C 102.039062 189.0625 102.039062 189.0625 102.84375 188.363281 C 104.191406 187.128906 105.414062 185.96875 106.5 184.5 C 106.5 182.453125 106.457031 181.457031 105 180 C 100.5625 180.179688 98.597656 181.359375 95.484375 184.453125 C 91.238281 188.628906 91.238281 188.628906 88.5 189.75 C 88.296875 189.304688 88.09375 188.859375 87.882812 188.402344 C 86.460938 185.746094 84.371094 183.8125 82.265625 181.6875 C 81.839844 181.234375 81.410156 180.785156 80.972656 180.320312 C 78.476562 177.742188 78.476562 177.742188 75.15625 176.613281 C 73.355469 176.878906 73.355469 176.878906 72 178.5 Z M 174.882812 209.113281 C 171.460938 213.371094 169.0625 218.382812 168.46875 223.828125 C 168.636719 225.925781 168.636719 225.925781 170.25 228 C 172.09375 228.375 172.09375 228.375 174 228 C 176.457031 226.171875 177.007812 223.851562 177.9375 221.015625 C 179.539062 216.664062 181.195312 213.84375 185.25 211.5 C 189.929688 209.941406 196.421875 209.800781 201.046875 211.6875 C 201.773438 212.121094 202.5 212.554688 203.25 213 C 203.898438 213.386719 204.550781 213.773438 205.21875 214.171875 C 209.980469 219.058594 211.789062 226.125 213.75 232.5 C 215.484375 232.746094 217.214844 232.996094 219 233.25 C 220.863281 230.457031 220.601562 229.390625 220.152344 226.195312 C 218.519531 218.292969 215.230469 211.246094 208.6875 206.34375 C 198.042969 199.464844 184.125 199.890625 174.882812 209.113281 Z M 82.5 242.25 C 79.730469 246.183594 79.003906 251.101562 79.75 255.828125 C 82.351562 264.246094 89.664062 268.410156 96.957031 272.296875 C 113.3125 281.191406 113.3125 281.191406 115.5 287.25 C 115.949219 289.769531 116.257812 292.289062 116.578125 294.824219 C 116.804688 297.085938 116.804688 297.085938 118.5 298.5 C 120.375 298.75 120.375 298.75 122.25 298.5 C 124.289062 296.460938 124.203125 294.863281 124.59375 292.03125 C 124.78125 290.695312 124.78125 290.695312 124.972656 289.328125 C 125.109375 288.300781 125.109375 288.300781 125.25 287.25 C 127.375 286.449219 129.5 285.652344 131.625 284.859375 C 132.265625 284.621094 132.90625 284.382812 133.566406 284.136719 C 138.660156 282.257812 143.789062 280.652344 149.007812 279.179688 C 152.214844 277.984375 154.382812 276.570312 156.273438 273.691406 C 158.199219 269.285156 159.277344 265.71875 157.753906 260.949219 C 154.941406 254.53125 150.085938 251.800781 143.804688 249.25 C 138.128906 247.230469 132.273438 245.871094 126.421875 244.453125 C 125.074219 244.121094 123.730469 243.792969 122.382812 243.460938 C 115.507812 241.78125 108.621094 240.132812 101.671875 238.78125 C 101.09375 238.667969 100.515625 238.554688 99.921875 238.433594 C 92.824219 237.152344 87.792969 236.847656 82.5 242.25 Z M 82.5 242.25 "/></g></svg>